<svg width="510.001" height="71.001" viewBox="0 0 510.001 71.001" xmlns="http://www.w3.org/2000/svg"><g id="svgGroup" stroke-linecap="round" fill-rule="evenodd" font-size="9pt" stroke="#000" stroke-width="0.25mm" fill="#000" style="stroke:#000;stroke-width:0.25mm;fill:#000"><path d="M 410.8 32.1 L 409.5 33 L 410 31.1 A 13.147 13.147 0 0 1 412.546 27.071 A 17.278 17.278 0 0 1 414.55 25.2 Q 417.8 22.6 421.85 21.05 A 24.011 24.011 0 0 1 426.327 19.797 A 19.709 19.709 0 0 1 429.7 19.5 Q 434.88 19.5 438.494 21.438 A 13.434 13.434 0 0 1 439.6 22.1 Q 443.5 24.7 445.35 29.05 Q 447.2 33.4 447.2 38.9 L 447.2 68 Q 447.2 68.8 446.65 69.4 Q 446.1 70 445.2 70 A 2.189 2.189 0 0 1 444.527 69.901 A 1.776 1.776 0 0 1 443.75 69.4 Q 443.2 68.8 443.2 68 L 443.2 39.3 A 23.273 23.273 0 0 0 442.689 34.34 A 19.706 19.706 0 0 0 441.75 31.25 A 12.898 12.898 0 0 0 438.839 26.778 A 12.474 12.474 0 0 0 437.25 25.45 Q 434.495 23.509 430.231 23.321 A 21.148 21.148 0 0 0 429.3 23.3 Q 425 23.3 420.9 25.45 Q 416.8 27.6 414.15 31.25 Q 411.5 34.9 411.5 39.3 L 411.5 68 Q 411.5 68.8 410.95 69.4 Q 410.4 70 409.5 70 A 2.189 2.189 0 0 1 408.827 69.901 A 1.776 1.776 0 0 1 408.05 69.4 Q 407.5 68.8 407.5 68 L 407.5 38.8 A 23.663 23.663 0 0 0 407.073 34.218 A 19.29 19.29 0 0 0 406.15 31 Q 404.8 27.5 401.9 25.4 Q 399.368 23.567 395.388 23.334 A 20.356 20.356 0 0 0 394.2 23.3 A 17.025 17.025 0 0 0 386.545 25.146 A 19.984 19.984 0 0 0 386.05 25.4 Q 382.1 27.5 379.5 31 Q 376.9 34.5 376.9 38.8 L 376.9 68 A 1.908 1.908 0 0 1 376.338 69.362 A 2.504 2.504 0 0 1 376.3 69.4 A 2.091 2.091 0 0 1 375.683 69.836 A 1.879 1.879 0 0 1 374.9 70 A 2.189 2.189 0 0 1 374.227 69.901 A 1.776 1.776 0 0 1 373.45 69.4 Q 372.9 68.8 372.9 68 L 372.9 22.1 A 1.908 1.908 0 0 1 373.462 20.739 A 2.504 2.504 0 0 1 373.5 20.7 A 2.091 2.091 0 0 1 374.117 20.265 A 1.879 1.879 0 0 1 374.9 20.1 A 2.189 2.189 0 0 1 375.574 20.199 A 1.776 1.776 0 0 1 376.35 20.7 Q 376.9 21.3 376.9 22.1 L 376.9 33 L 373.9 38.1 A 14.612 14.612 0 0 1 375.47 31.559 A 17.034 17.034 0 0 1 375.6 31.3 Q 377.3 28 380.15 25.35 Q 383 22.7 386.65 21.1 Q 390.3 19.5 394.2 19.5 Q 399.8 19.5 404.45 22.55 A 14.103 14.103 0 0 1 409.367 28.206 A 20.229 20.229 0 0 1 410.8 32.1 Z M 243.8 43.4 L 203 43.4 L 202.4 39.6 L 242.7 39.6 L 241.7 40.5 L 241.7 38.7 A 18.995 18.995 0 0 0 240.715 34.105 A 14.949 14.949 0 0 0 238.35 29.8 Q 235.5 26.2 231.5 24.35 Q 227.5 22.5 223.2 22.5 A 14.975 14.975 0 0 0 219.532 22.976 A 19.649 19.649 0 0 0 216.9 23.85 A 18.337 18.337 0 0 0 211.958 26.891 A 21.79 21.79 0 0 0 210.8 27.95 A 19.264 19.264 0 0 0 207.577 32.184 A 24.492 24.492 0 0 0 206.25 34.9 A 22.017 22.017 0 0 0 204.859 39.913 A 30.368 30.368 0 0 0 204.5 44.7 A 26.491 26.491 0 0 0 205.658 52.615 A 24.145 24.145 0 0 0 206.95 55.9 Q 209.4 61 214.25 64.1 A 19.119 19.119 0 0 0 220.779 66.684 A 27.019 27.019 0 0 0 226.2 67.2 A 17.852 17.852 0 0 0 232.034 66.256 A 16.945 16.945 0 0 0 232.6 66.05 Q 235.6 64.9 238 63 A 20.588 20.588 0 0 0 240.415 60.768 A 16.704 16.704 0 0 0 241.9 58.9 Q 242.475 58.254 243.1 58.072 A 1.779 1.779 0 0 1 243.6 58 A 1.551 1.551 0 0 1 244.745 58.492 A 2.071 2.071 0 0 1 244.8 58.55 A 1.945 1.945 0 0 1 245.179 59.148 A 1.768 1.768 0 0 1 245.3 59.8 Q 245.3 60.5 244.9 61 A 28.123 28.123 0 0 1 239.574 66.208 A 34.259 34.259 0 0 1 236.95 68 Q 232.1 71 226.2 71 A 29.882 29.882 0 0 1 218.931 70.15 A 24.424 24.424 0 0 1 212.95 67.8 Q 207.2 64.6 203.9 58.75 Q 200.6 52.9 200.6 45 A 36.199 36.199 0 0 1 201.179 38.358 Q 201.922 34.377 203.619 31.13 A 22.507 22.507 0 0 1 203.85 30.7 A 25.89 25.89 0 0 1 207.973 25.07 A 21.984 21.984 0 0 1 212.25 21.65 Q 217.4 18.5 223.2 18.5 Q 227.4 18.5 231.4 19.85 Q 235.4 21.2 238.55 24.05 A 20.88 20.88 0 0 1 242.808 29.482 A 24.881 24.881 0 0 1 243.65 31.15 A 22.271 22.271 0 0 1 245.196 35.972 Q 245.656 38.211 245.778 40.768 A 37.914 37.914 0 0 1 245.8 41.3 A 2.029 2.029 0 0 1 245.357 42.565 A 2.694 2.694 0 0 1 245.2 42.75 Q 244.6 43.4 243.8 43.4 Z M 256.184 61.401 A 7.329 7.329 0 0 0 256.5 62 A 27.908 27.908 0 0 0 259.552 65.221 A 21.251 21.251 0 0 0 265.2 68.9 Q 270 71 275.2 71 A 27.609 27.609 0 0 0 279.154 70.728 A 20.953 20.953 0 0 0 284.25 69.35 Q 288.2 67.7 290.45 64.65 Q 292.7 61.6 292.7 57.4 Q 292.7 53.8 291.45 51.4 Q 290.2 49 288.05 47.4 Q 285.9 45.8 283.05 44.75 Q 280.2 43.7 276.9 42.9 Q 272.8 41.8 269.55 40.5 A 21.38 21.38 0 0 1 269.361 40.424 Q 267.949 39.843 266.789 39.128 A 12.67 12.67 0 0 1 264.35 37.2 A 7.295 7.295 0 0 1 262.741 34.684 A 8.796 8.796 0 0 1 262.2 32.1 A 10.484 10.484 0 0 1 262.35 30.289 A 7.598 7.598 0 0 1 264 26.65 A 10.537 10.537 0 0 1 265.532 25.158 A 11.82 11.82 0 0 1 268.65 23.4 A 15.824 15.824 0 0 1 270.15 22.906 A 17.451 17.451 0 0 1 274.8 22.3 Q 278.7 22.3 282.15 23.7 Q 285.6 25.1 288.2 28 Q 288.7 28.6 289.4 28.6 Q 290.1 28.6 290.7 28.2 A 3.044 3.044 0 0 0 291.014 27.835 A 2.209 2.209 0 0 0 291.45 26.65 A 1.688 1.688 0 0 0 291.453 26.551 Q 291.453 25.765 290.7 25.2 A 21.009 21.009 0 0 0 289.224 23.688 A 17.153 17.153 0 0 0 285.7 21.15 Q 283 19.7 280.3 19.1 Q 277.6 18.5 275.2 18.5 A 24.825 24.825 0 0 0 271.336 18.789 A 18.695 18.695 0 0 0 266.4 20.25 A 16.793 16.793 0 0 0 264.819 21.081 A 13.446 13.446 0 0 0 260.5 25.1 Q 258.4 28.2 258.4 32.1 Q 258.4 35.4 259.8 37.8 A 12.923 12.923 0 0 0 260.473 38.837 A 13.9 13.9 0 0 0 263.6 41.95 A 20.092 20.092 0 0 0 265.527 43.19 A 24.033 24.033 0 0 0 269.15 44.85 A 64.686 64.686 0 0 0 270.344 45.273 A 72.317 72.317 0 0 0 275.8 46.9 Q 279.1 47.7 282.1 48.9 A 15.731 15.731 0 0 1 283.95 49.779 A 12.348 12.348 0 0 1 287 52.15 A 6.879 6.879 0 0 1 288.636 55.252 A 9.869 9.869 0 0 1 288.9 57.6 A 9.993 9.993 0 0 1 288.877 58.288 A 7.696 7.696 0 0 1 286.95 63 A 11.145 11.145 0 0 1 285.147 64.634 A 12.812 12.812 0 0 1 281.95 66.3 Q 278.9 67.4 275.6 67.4 A 23.045 23.045 0 0 1 271.912 67.116 A 17.398 17.398 0 0 1 266.05 65.1 Q 262 62.8 259.4 59.1 A 2.657 2.657 0 0 0 259.3 58.99 A 1.979 1.979 0 0 0 257.95 58.35 A 2.583 2.583 0 0 0 257.798 58.346 Q 257.055 58.346 256.6 58.8 A 2.257 2.257 0 0 0 256.36 58.997 A 1.553 1.553 0 0 0 255.85 60.05 A 1.533 1.533 0 0 0 255.847 60.152 Q 255.847 60.676 256.184 61.401 Z M 302.684 61.401 A 7.329 7.329 0 0 0 303 62 A 27.908 27.908 0 0 0 306.052 65.221 A 21.251 21.251 0 0 0 311.7 68.9 Q 316.5 71 321.7 71 A 27.609 27.609 0 0 0 325.654 70.728 A 20.953 20.953 0 0 0 330.75 69.35 Q 334.7 67.7 336.95 64.65 Q 339.2 61.6 339.2 57.4 Q 339.2 53.8 337.95 51.4 Q 336.7 49 334.55 47.4 Q 332.4 45.8 329.55 44.75 Q 326.7 43.7 323.4 42.9 Q 319.3 41.8 316.05 40.5 A 21.38 21.38 0 0 1 315.861 40.424 Q 314.449 39.843 313.289 39.128 A 12.67 12.67 0 0 1 310.85 37.2 A 7.295 7.295 0 0 1 309.241 34.684 A 8.796 8.796 0 0 1 308.7 32.1 A 10.484 10.484 0 0 1 308.85 30.289 A 7.598 7.598 0 0 1 310.5 26.65 A 10.537 10.537 0 0 1 312.032 25.158 A 11.82 11.82 0 0 1 315.15 23.4 A 15.824 15.824 0 0 1 316.65 22.906 A 17.451 17.451 0 0 1 321.3 22.3 Q 325.2 22.3 328.65 23.7 Q 332.1 25.1 334.7 28 Q 335.2 28.6 335.9 28.6 Q 336.6 28.6 337.2 28.2 A 3.044 3.044 0 0 0 337.514 27.835 A 2.209 2.209 0 0 0 337.95 26.65 A 1.688 1.688 0 0 0 337.953 26.551 Q 337.953 25.765 337.2 25.2 A 21.009 21.009 0 0 0 335.724 23.688 A 17.153 17.153 0 0 0 332.2 21.15 Q 329.5 19.7 326.8 19.1 Q 324.1 18.5 321.7 18.5 A 24.825 24.825 0 0 0 317.836 18.789 A 18.695 18.695 0 0 0 312.9 20.25 A 16.793 16.793 0 0 0 311.319 21.081 A 13.446 13.446 0 0 0 307 25.1 Q 304.9 28.2 304.9 32.1 Q 304.9 35.4 306.3 37.8 A 12.923 12.923 0 0 0 306.973 38.837 A 13.9 13.9 0 0 0 310.1 41.95 A 20.092 20.092 0 0 0 312.027 43.19 A 24.033 24.033 0 0 0 315.65 44.85 A 64.686 64.686 0 0 0 316.844 45.273 A 72.317 72.317 0 0 0 322.3 46.9 Q 325.6 47.7 328.6 48.9 A 15.731 15.731 0 0 1 330.45 49.779 A 12.348 12.348 0 0 1 333.5 52.15 A 6.879 6.879 0 0 1 335.136 55.252 A 9.869 9.869 0 0 1 335.4 57.6 A 9.993 9.993 0 0 1 335.377 58.288 A 7.696 7.696 0 0 1 333.45 63 A 11.145 11.145 0 0 1 331.647 64.634 A 12.812 12.812 0 0 1 328.45 66.3 Q 325.4 67.4 322.1 67.4 A 23.045 23.045 0 0 1 318.412 67.116 A 17.398 17.398 0 0 1 312.55 65.1 Q 308.5 62.8 305.9 59.1 A 2.657 2.657 0 0 0 305.8 58.99 A 1.979 1.979 0 0 0 304.45 58.35 A 2.583 2.583 0 0 0 304.298 58.346 Q 303.555 58.346 303.1 58.8 A 2.257 2.257 0 0 0 302.86 58.997 A 1.553 1.553 0 0 0 302.35 60.05 A 1.533 1.533 0 0 0 302.347 60.152 Q 302.347 60.676 302.684 61.401 Z M 174.1 18.5 Q 178.6 18.5 182.55 19.5 Q 185.574 20.266 187.719 21.413 A 14.111 14.111 0 0 1 188.95 22.15 Q 191.238 23.691 191.389 25.363 A 2.632 2.632 0 0 1 191.4 25.6 A 1.864 1.864 0 0 1 191.163 26.498 A 2.672 2.672 0 0 1 190.85 26.95 A 1.919 1.919 0 0 1 190.342 27.383 A 1.662 1.662 0 0 1 189.5 27.6 Q 188.433 27.6 187.79 27.036 A 2.089 2.089 0 0 1 187.75 27 A 12.404 12.404 0 0 1 187.089 26.339 Q 186.751 25.976 186.4 25.55 A 4.257 4.257 0 0 0 185.731 24.909 Q 185.384 24.638 184.943 24.384 A 9.826 9.826 0 0 0 184.2 24 Q 182.861 23.331 180.469 22.844 A 31.467 31.467 0 0 0 180.25 22.8 A 23.594 23.594 0 0 0 178.176 22.496 Q 176.313 22.3 174 22.3 Q 168.2 22.3 163.4 25.3 Q 158.6 28.3 155.75 33.35 A 22.259 22.259 0 0 0 152.947 43.097 A 26.838 26.838 0 0 0 152.9 44.7 Q 152.9 51.1 155.55 56.2 Q 158.2 61.3 162.95 64.25 A 19.594 19.594 0 0 0 171.132 67.038 A 24.782 24.782 0 0 0 174 67.2 A 38.681 38.681 0 0 0 176.361 67.133 Q 178.693 66.99 180.255 66.542 A 9.238 9.238 0 0 0 180.85 66.35 A 29.7 29.7 0 0 0 182.782 65.578 Q 183.944 65.063 184.9 64.5 A 16.957 16.957 0 0 0 185.979 63.833 Q 187.225 62.991 187.8 62.2 A 3.285 3.285 0 0 1 188.329 61.62 A 2.07 2.07 0 0 1 189.7 61.1 A 2.054 2.054 0 0 1 190.23 61.165 A 1.448 1.448 0 0 1 190.95 61.6 Q 191.4 62.1 191.4 62.9 A 1.862 1.862 0 0 1 191.216 63.657 Q 190.783 64.621 189.331 65.933 A 18.623 18.623 0 0 1 189.2 66.05 Q 187.491 67.565 184.725 68.809 A 30.448 30.448 0 0 1 183.05 69.5 A 21.867 21.867 0 0 1 178.774 70.62 Q 176.724 70.951 174.396 70.994 A 37.876 37.876 0 0 1 173.7 71 A 26.221 26.221 0 0 1 166.249 69.976 A 22.448 22.448 0 0 1 160.8 67.55 Q 155.2 64.1 152.05 58.15 A 27.237 27.237 0 0 1 149.051 47.907 A 33.473 33.473 0 0 1 148.9 44.7 Q 148.9 37.7 152.05 31.75 Q 155.2 25.8 160.85 22.15 A 22.779 22.779 0 0 1 170.645 18.701 A 29.046 29.046 0 0 1 174.1 18.5 Z M 2 0 L 26 0 Q 31.7 0 35.95 2.4 Q 40.2 4.8 42.55 9.1 A 19.021 19.021 0 0 1 44.647 15.51 A 24.648 24.648 0 0 1 44.9 19.1 A 22.973 22.973 0 0 1 44.072 25.363 A 19.99 19.99 0 0 1 42.55 29.2 Q 40.2 33.7 35.95 36.3 A 17.6 17.6 0 0 1 29.092 38.695 A 22.575 22.575 0 0 1 26 38.9 L 3.8 38.9 L 4.2 38.2 L 4.2 68 A 1.801 1.801 0 0 1 3.702 69.247 A 2.481 2.481 0 0 1 3.55 69.4 A 2.372 2.372 0 0 1 2.941 69.816 A 1.974 1.974 0 0 1 2.1 70 A 2.674 2.674 0 0 1 1.466 69.929 A 1.783 1.783 0 0 1 0.55 69.4 Q 0 68.8 0 68 L 0 2 A 1.908 1.908 0 0 1 0.562 0.639 A 2.504 2.504 0 0 1 0.6 0.6 A 2.091 2.091 0 0 1 1.217 0.165 A 1.879 1.879 0 0 1 2 0 Z M 57.7 68 L 57.7 22.1 A 1.908 1.908 0 0 1 58.262 20.739 A 2.504 2.504 0 0 1 58.3 20.7 A 2.091 2.091 0 0 1 58.917 20.265 A 1.879 1.879 0 0 1 59.7 20.1 A 2.189 2.189 0 0 1 60.374 20.199 A 1.776 1.776 0 0 1 61.15 20.7 Q 61.7 21.3 61.7 22.1 L 61.7 39 L 60 41.6 A 24.117 24.117 0 0 1 60.961 34.948 A 27.78 27.78 0 0 1 61.35 33.7 Q 62.7 29.7 65.3 26.25 Q 67.9 22.8 71.65 20.65 A 16.223 16.223 0 0 1 77.85 18.643 A 20.487 20.487 0 0 1 80.3 18.5 A 11.138 11.138 0 0 1 81.938 18.627 A 14.287 14.287 0 0 1 83.3 18.9 A 2.795 2.795 0 0 1 84.018 19.179 Q 84.804 19.631 84.89 20.564 A 2.577 2.577 0 0 1 84.9 20.8 A 2.675 2.675 0 0 1 84.811 21.506 A 2.079 2.079 0 0 1 84.4 22.3 A 1.596 1.596 0 0 1 83.247 22.895 A 2.027 2.027 0 0 1 83.1 22.9 Q 82.506 22.9 81.667 22.459 A 6.496 6.496 0 0 1 81.65 22.45 A 3.196 3.196 0 0 0 80.977 22.194 Q 80.25 22 79.2 22 A 11.327 11.327 0 0 0 74.481 23.058 A 14.445 14.445 0 0 0 72.9 23.9 A 21.319 21.319 0 0 0 68.601 27.409 A 25.544 25.544 0 0 0 67.25 28.95 Q 64.7 32.1 63.2 35.8 A 20.946 20.946 0 0 0 61.987 39.9 A 17.205 17.205 0 0 0 61.7 43 L 61.7 68 A 1.908 1.908 0 0 1 61.138 69.362 A 2.504 2.504 0 0 1 61.1 69.4 A 2.091 2.091 0 0 1 60.483 69.836 A 1.879 1.879 0 0 1 59.7 70 A 2.189 2.189 0 0 1 59.027 69.901 A 1.776 1.776 0 0 1 58.25 69.4 Q 57.7 68.8 57.7 68 Z M 137.312 53.281 A 29.439 29.439 0 0 0 138.5 44.8 Q 138.5 37.3 135.3 31.35 Q 132.1 25.4 126.55 21.95 Q 121 18.5 113.9 18.5 Q 106.9 18.5 101.3 21.95 Q 95.7 25.4 92.45 31.35 A 25.659 25.659 0 0 0 90.286 36.647 A 29.673 29.673 0 0 0 89.2 44.8 A 32.242 32.242 0 0 0 89.279 47.077 A 26.75 26.75 0 0 0 92.45 58.15 Q 95.7 64.1 101.3 67.55 A 22.835 22.835 0 0 0 105.126 69.443 A 24.351 24.351 0 0 0 113.9 71 A 28.089 28.089 0 0 0 115.651 70.946 A 23.021 23.021 0 0 0 126.55 67.55 Q 132.1 64.1 135.3 58.15 A 25.975 25.975 0 0 0 137.312 53.281 Z M 508.812 53.281 A 29.439 29.439 0 0 0 510 44.8 Q 510 37.3 506.8 31.35 Q 503.6 25.4 498.05 21.95 Q 492.5 18.5 485.4 18.5 Q 478.4 18.5 472.8 21.95 Q 467.2 25.4 463.95 31.35 A 25.659 25.659 0 0 0 461.786 36.647 A 29.673 29.673 0 0 0 460.7 44.8 A 32.242 32.242 0 0 0 460.779 47.077 A 26.75 26.75 0 0 0 463.95 58.15 Q 467.2 64.1 472.8 67.55 A 22.835 22.835 0 0 0 476.626 69.443 A 24.351 24.351 0 0 0 485.4 71 A 28.089 28.089 0 0 0 487.151 70.946 A 23.021 23.021 0 0 0 498.05 67.55 Q 503.6 64.1 506.8 58.15 A 25.975 25.975 0 0 0 508.812 53.281 Z M 134.5 44.8 A 27.174 27.174 0 0 0 133.758 38.326 A 22.264 22.264 0 0 0 131.85 33.25 Q 129.2 28.2 124.55 25.25 A 19.062 19.062 0 0 0 115.425 22.349 A 23.402 23.402 0 0 0 113.9 22.3 A 20.192 20.192 0 0 0 106.514 23.632 A 18.981 18.981 0 0 0 103.3 25.25 Q 98.6 28.2 95.9 33.25 A 22.809 22.809 0 0 0 93.414 41.259 A 28.619 28.619 0 0 0 93.2 44.8 A 25.959 25.959 0 0 0 94.054 51.573 A 22.034 22.034 0 0 0 95.9 56.25 Q 98.6 61.3 103.3 64.25 A 19.405 19.405 0 0 0 113.35 67.194 A 23.269 23.269 0 0 0 113.9 67.2 A 20.763 20.763 0 0 0 120.386 66.214 A 18.426 18.426 0 0 0 124.55 64.25 Q 129.2 61.3 131.85 56.25 Q 134.5 51.2 134.5 44.8 Z M 506 44.8 A 27.174 27.174 0 0 0 505.258 38.326 A 22.264 22.264 0 0 0 503.35 33.25 Q 500.7 28.2 496.05 25.25 A 19.062 19.062 0 0 0 486.925 22.349 A 23.402 23.402 0 0 0 485.4 22.3 A 20.192 20.192 0 0 0 478.014 23.632 A 18.981 18.981 0 0 0 474.8 25.25 Q 470.1 28.2 467.4 33.25 A 22.809 22.809 0 0 0 464.914 41.259 A 28.619 28.619 0 0 0 464.7 44.8 A 25.959 25.959 0 0 0 465.554 51.573 A 22.034 22.034 0 0 0 467.4 56.25 Q 470.1 61.3 474.8 64.25 A 19.405 19.405 0 0 0 484.85 67.194 A 23.269 23.269 0 0 0 485.4 67.2 A 20.763 20.763 0 0 0 491.886 66.214 A 18.426 18.426 0 0 0 496.05 64.25 Q 500.7 61.3 503.35 56.25 Q 506 51.2 506 44.8 Z M 3.8 34.9 L 26 34.9 A 17.232 17.232 0 0 0 29.767 34.508 A 12.841 12.841 0 0 0 33.85 32.85 Q 37.1 30.8 38.9 27.2 A 17.132 17.132 0 0 0 40.601 21.16 A 21.037 21.037 0 0 0 40.7 19.1 A 19.837 19.837 0 0 0 40.356 15.315 A 14.64 14.64 0 0 0 38.9 11.15 Q 37.1 7.8 33.85 5.9 Q 30.6 4 26 4 L 3.9 4 L 4.2 3.5 L 4.2 35.2 L 3.8 34.9 Z M 356.3 20.5 L 356.3 68 A 1.908 1.908 0 0 1 355.738 69.362 A 2.504 2.504 0 0 1 355.7 69.4 A 2.091 2.091 0 0 1 355.083 69.836 A 1.879 1.879 0 0 1 354.3 70 A 2.189 2.189 0 0 1 353.627 69.901 A 1.776 1.776 0 0 1 352.85 69.4 Q 352.3 68.8 352.3 68 L 352.3 20.5 A 1.908 1.908 0 0 1 352.862 19.139 A 2.504 2.504 0 0 1 352.9 19.1 A 2.091 2.091 0 0 1 353.517 18.665 A 1.879 1.879 0 0 1 354.3 18.5 A 2.189 2.189 0 0 1 354.974 18.599 A 1.776 1.776 0 0 1 355.75 19.1 Q 356.3 19.7 356.3 20.5 Z M 350.8 8.5 L 350.8 7.7 A 3.195 3.195 0 0 1 351.02 6.498 A 2.946 2.946 0 0 1 351.8 5.4 A 3.439 3.439 0 0 1 353.503 4.58 A 4.854 4.854 0 0 1 354.4 4.5 Q 355.8 4.5 356.75 5.4 A 2.999 2.999 0 0 1 357.697 7.549 A 4.009 4.009 0 0 1 357.7 7.7 L 357.7 8.5 A 3.367 3.367 0 0 1 357.508 9.657 A 2.944 2.944 0 0 1 356.75 10.8 A 3.241 3.241 0 0 1 354.93 11.657 A 4.457 4.457 0 0 1 354.3 11.7 A 4.604 4.604 0 0 1 353.213 11.579 A 3.171 3.171 0 0 1 351.75 10.8 A 2.999 2.999 0 0 1 350.803 8.652 A 4.009 4.009 0 0 1 350.8 8.5 Z" vector-effect="non-scaling-stroke"/></g></svg>