<svg width="504.501" height="72.701" viewBox="0 0 504.501 72.701" xmlns="http://www.w3.org/2000/svg"><g id="svgGroup" stroke-linecap="round" fill-rule="evenodd" font-size="9pt" stroke="#ffffff" stroke-width="0.25mm" fill="#ffffff" style="stroke:#ffffff;stroke-width:0.25mm;fill:#ffffff"><path d="M 374.2 71.7 L 374.2 21.6 L 379.7 21.6 L 379.7 29.6 Q 382.1 25.4 386.15 23 A 16.653 16.653 0 0 1 391.418 21.027 A 23.352 23.352 0 0 1 396 20.6 A 18.332 18.332 0 0 1 401.423 21.378 A 15.896 15.896 0 0 1 405.35 23.2 Q 409.377 25.785 410.883 31.534 A 21.868 21.868 0 0 1 410.9 31.6 L 411.4 31.6 A 28.231 28.231 0 0 1 413.461 27.94 Q 414.739 26.041 416.2 24.678 A 13.972 13.972 0 0 1 418.15 23.15 A 14.909 14.909 0 0 1 422.608 21.258 Q 425.201 20.6 428.4 20.6 A 20.877 20.877 0 0 1 432.291 20.948 A 16.516 16.516 0 0 1 435.4 21.85 Q 438.5 23.1 440.6 25.55 A 14.653 14.653 0 0 1 442.694 28.817 A 19.812 19.812 0 0 1 443.8 31.75 A 25.774 25.774 0 0 1 444.608 35.676 Q 444.861 37.624 444.895 39.821 A 44.3 44.3 0 0 1 444.9 40.5 L 444.9 71.7 L 439.2 71.7 L 439.3 40.8 A 37.056 37.056 0 0 0 439.1 36.794 Q 438.66 32.765 437.252 30.4 A 7.618 7.618 0 0 0 436.1 28.9 Q 433.564 26.364 428.893 25.838 A 23.188 23.188 0 0 0 426.3 25.7 Q 420 25.7 416.2 29.6 Q 412.542 33.354 412.405 41.742 A 40.395 40.395 0 0 0 412.4 42.4 L 412.4 71.7 L 406.7 71.7 L 406.9 40.8 Q 406.967 36.835 406.289 34.044 A 12.921 12.921 0 0 0 405.45 31.6 A 10.567 10.567 0 0 0 403.902 29.172 A 8.255 8.255 0 0 0 401 27 Q 398.327 25.802 394.636 25.708 A 24.987 24.987 0 0 0 394 25.7 A 18.46 18.46 0 0 0 389.712 26.17 A 12.338 12.338 0 0 0 383.65 29.5 Q 380.045 33.153 379.906 41.519 A 40.86 40.86 0 0 0 379.9 42.2 L 379.9 71.7 L 374.2 71.7 Z M 198.4 48.8 L 198.5 44.1 L 235 44.1 Q 235 35.8 231.15 30.7 Q 227.3 25.6 219.2 25.6 A 22.615 22.615 0 0 0 214.274 26.101 Q 211.152 26.798 208.874 28.465 A 12.445 12.445 0 0 0 206.3 31 A 17.827 17.827 0 0 0 203.57 36.411 Q 202.778 38.892 202.444 41.91 A 42.675 42.675 0 0 0 202.2 46.6 Q 202.2 56.8 206.2 62.25 Q 209.541 66.802 216.858 67.552 A 29.86 29.86 0 0 0 219.9 67.7 Q 225.791 67.7 228.84 65.776 A 7.959 7.959 0 0 0 229.25 65.5 Q 232.3 63.3 233.4 59.7 L 239.7 59.7 A 23.241 23.241 0 0 1 237.353 64.897 A 20.932 20.932 0 0 1 236.3 66.45 A 13.488 13.488 0 0 1 232.366 69.956 A 17.352 17.352 0 0 1 230.2 71.05 A 18.087 18.087 0 0 1 226.923 72.055 Q 225.223 72.418 223.213 72.577 A 42.183 42.183 0 0 1 219.9 72.7 Q 208.3 72.7 202.4 65.95 A 21.929 21.929 0 0 1 198.069 58.038 Q 196.5 53.097 196.5 46.6 Q 196.5 37.993 199.23 32.139 A 20.439 20.439 0 0 1 202.35 27.3 A 18.892 18.892 0 0 1 212.536 21.321 A 28.981 28.981 0 0 1 219.2 20.6 A 24.145 24.145 0 0 1 226.492 21.677 A 21.867 21.867 0 0 1 229.95 23.1 A 16.89 16.89 0 0 1 235.721 28.05 A 22.762 22.762 0 0 1 237.75 31.3 Q 239.914 35.48 240.49 41.758 A 53.006 53.006 0 0 1 240.7 46.6 L 240.7 48.8 L 198.4 48.8 Z M 288.6 33.8 L 283 33.8 A 11.396 11.396 0 0 0 282.173 31.013 A 8.238 8.238 0 0 0 279.45 27.65 Q 276.6 25.6 270.7 25.6 A 29.492 29.492 0 0 0 267.264 25.786 Q 263.228 26.261 261 27.95 A 8.645 8.645 0 0 0 259.141 29.831 A 6.705 6.705 0 0 0 257.9 33.8 Q 257.9 36.379 258.88 37.977 A 4.866 4.866 0 0 0 260.5 39.6 Q 262.849 41.045 267.319 42.246 A 58.305 58.305 0 0 0 268.3 42.5 L 276.8 44.6 A 30.776 30.776 0 0 1 280.636 45.766 Q 284.469 47.231 286.6 49.5 Q 289.7 52.8 289.7 58.4 A 12.665 12.665 0 0 1 286.025 67.363 A 17.601 17.601 0 0 1 284.9 68.45 A 14.619 14.619 0 0 1 280.109 71.202 Q 277.907 71.996 275.17 72.369 A 39.116 39.116 0 0 1 269.9 72.7 A 37.071 37.071 0 0 1 264.927 72.389 Q 259.698 71.679 256.5 69.35 A 12.992 12.992 0 0 1 252.443 64.357 Q 251.537 62.469 251.009 60.118 A 26.597 26.597 0 0 1 250.7 58.5 L 256.8 58.5 A 14.791 14.791 0 0 0 257.592 61.519 Q 258.475 63.8 260.1 65.3 Q 262.31 67.34 267.698 67.646 A 35.349 35.349 0 0 0 269.7 67.7 Q 276.409 67.7 279.871 65.604 A 8.864 8.864 0 0 0 280.55 65.15 A 9.804 9.804 0 0 0 282.505 63.272 A 6.974 6.974 0 0 0 284 58.9 Q 284 55 281.65 52.9 A 10.194 10.194 0 0 0 279.854 51.646 Q 277.519 50.331 273.6 49.3 L 265.1 47.1 Q 260.837 45.985 257.993 44.332 A 14.72 14.72 0 0 1 255.4 42.45 A 9.727 9.727 0 0 1 252.388 36.744 A 14.042 14.042 0 0 1 252.2 34.4 A 14.325 14.325 0 0 1 252.902 29.812 A 11.792 11.792 0 0 1 256.8 24.3 A 14.513 14.513 0 0 1 261.262 21.922 Q 263.323 21.22 265.858 20.89 A 37.701 37.701 0 0 1 270.7 20.6 A 34.45 34.45 0 0 1 275.386 20.897 Q 277.694 21.215 279.578 21.873 A 13.821 13.821 0 0 1 283.3 23.8 A 12.395 12.395 0 0 1 287.297 28.995 Q 288.092 30.852 288.493 33.138 A 24.127 24.127 0 0 1 288.6 33.8 Z M 337.6 33.8 L 332 33.8 A 11.396 11.396 0 0 0 331.173 31.013 A 8.238 8.238 0 0 0 328.45 27.65 Q 325.6 25.6 319.7 25.6 A 29.492 29.492 0 0 0 316.264 25.786 Q 312.228 26.261 310 27.95 A 8.645 8.645 0 0 0 308.141 29.831 A 6.705 6.705 0 0 0 306.9 33.8 Q 306.9 36.379 307.88 37.977 A 4.866 4.866 0 0 0 309.5 39.6 Q 311.849 41.045 316.319 42.246 A 58.305 58.305 0 0 0 317.3 42.5 L 325.8 44.6 A 30.776 30.776 0 0 1 329.636 45.766 Q 333.469 47.231 335.6 49.5 Q 338.7 52.8 338.7 58.4 A 12.665 12.665 0 0 1 335.025 67.363 A 17.601 17.601 0 0 1 333.9 68.45 A 14.619 14.619 0 0 1 329.109 71.202 Q 326.907 71.996 324.17 72.369 A 39.116 39.116 0 0 1 318.9 72.7 A 37.071 37.071 0 0 1 313.927 72.389 Q 308.698 71.679 305.5 69.35 A 12.992 12.992 0 0 1 301.443 64.357 Q 300.537 62.469 300.009 60.118 A 26.597 26.597 0 0 1 299.7 58.5 L 305.8 58.5 A 14.791 14.791 0 0 0 306.592 61.519 Q 307.475 63.8 309.1 65.3 Q 311.31 67.34 316.698 67.646 A 35.349 35.349 0 0 0 318.7 67.7 Q 325.409 67.7 328.871 65.604 A 8.864 8.864 0 0 0 329.55 65.15 A 9.804 9.804 0 0 0 331.505 63.272 A 6.974 6.974 0 0 0 333 58.9 Q 333 55 330.65 52.9 A 10.194 10.194 0 0 0 328.854 51.646 Q 326.519 50.331 322.6 49.3 L 314.1 47.1 Q 309.837 45.985 306.993 44.332 A 14.72 14.72 0 0 1 304.4 42.45 A 9.727 9.727 0 0 1 301.388 36.744 A 14.042 14.042 0 0 1 301.2 34.4 A 14.325 14.325 0 0 1 301.902 29.812 A 11.792 11.792 0 0 1 305.8 24.3 A 14.513 14.513 0 0 1 310.262 21.922 Q 312.323 21.22 314.858 20.89 A 37.701 37.701 0 0 1 319.7 20.6 A 34.45 34.45 0 0 1 324.386 20.897 Q 326.694 21.215 328.578 21.873 A 13.821 13.821 0 0 1 332.3 23.8 A 12.395 12.395 0 0 1 336.297 28.995 Q 337.092 30.852 337.493 33.138 A 24.127 24.127 0 0 1 337.6 33.8 Z M 186.5 35.4 L 180.5 35.4 A 14.271 14.271 0 0 0 179.019 31.493 A 11.942 11.942 0 0 0 176.45 28.35 A 9.049 9.049 0 0 0 173.635 26.735 Q 170.85 25.7 166.6 25.7 A 21.543 21.543 0 0 0 161.23 26.33 A 14.571 14.571 0 0 0 153.55 31.05 Q 149.953 35.28 149.199 42.542 A 39.382 39.382 0 0 0 149 46.6 A 36.687 36.687 0 0 0 149.444 52.506 Q 149.96 55.66 151.073 58.184 A 16.571 16.571 0 0 0 153.55 62.2 A 14.762 14.762 0 0 0 162.247 67.196 A 22.295 22.295 0 0 0 166.6 67.6 A 31.569 31.569 0 0 0 169.995 67.43 Q 173.602 67.038 175.826 65.746 A 8.572 8.572 0 0 0 176.3 65.45 A 9.077 9.077 0 0 0 179.383 61.846 Q 180.019 60.559 180.397 58.962 A 17.285 17.285 0 0 0 180.5 58.5 L 186.6 58.5 A 17.636 17.636 0 0 1 184.343 64.452 A 16.73 16.73 0 0 1 183.35 65.9 A 15.559 15.559 0 0 1 178.602 69.979 A 19.377 19.377 0 0 1 176.75 70.9 A 20.524 20.524 0 0 1 172.319 72.221 Q 170.225 72.61 167.824 72.683 A 37.051 37.051 0 0 1 166.7 72.7 Q 158.196 72.7 152.809 69.194 A 17.315 17.315 0 0 1 149.1 65.95 A 21.97 21.97 0 0 1 144.889 58.188 Q 143.846 54.911 143.488 50.945 A 48.306 48.306 0 0 1 143.3 46.6 A 42.565 42.565 0 0 1 143.886 39.301 Q 145.175 31.906 149.3 27.3 A 19.429 19.429 0 0 1 159.562 21.356 A 29.938 29.938 0 0 1 166.5 20.6 Q 172.1 20.6 176.25 22.4 A 17.736 17.736 0 0 1 181.127 25.496 A 16.233 16.233 0 0 1 183 27.5 A 17.475 17.475 0 0 1 186.005 33.382 A 21.451 21.451 0 0 1 186.5 35.4 Z M 0 71.7 L 0 1 L 23.6 1 A 44.535 44.535 0 0 1 29.054 1.313 Q 31.773 1.649 34.042 2.347 A 20.287 20.287 0 0 1 37.3 3.65 A 17.984 17.984 0 0 1 42.035 7.072 A 15.855 15.855 0 0 1 44.9 11.1 A 22.032 22.032 0 0 1 46.841 17.07 A 30.545 30.545 0 0 1 47.3 22.5 A 30.617 30.617 0 0 1 46.79 28.223 A 22.717 22.717 0 0 1 44.9 34 A 16.699 16.699 0 0 1 37.866 41.32 A 20.588 20.588 0 0 1 37.35 41.6 A 21.024 21.024 0 0 1 32.629 43.348 Q 28.787 44.3 23.8 44.3 L 6 44.3 L 6 71.7 L 0 71.7 Z M 102.962 71.938 A 29.726 29.726 0 0 0 109.9 72.7 Q 121.1 72.7 127.1 65.95 A 20.51 20.51 0 0 0 130.138 61.418 Q 133.1 55.453 133.1 46.6 A 49.146 49.146 0 0 0 133.052 44.415 Q 132.909 41.205 132.338 38.409 A 27.005 27.005 0 0 0 130.4 32.4 A 23.417 23.417 0 0 0 129.963 31.511 A 19.067 19.067 0 0 0 122.55 23.6 Q 119.492 21.819 115.606 21.095 A 31.172 31.172 0 0 0 109.9 20.6 A 29.938 29.938 0 0 0 102.962 21.356 A 19.429 19.429 0 0 0 92.7 27.3 Q 88.575 31.906 87.286 39.301 A 42.565 42.565 0 0 0 86.7 46.6 Q 86.7 52.949 88.224 57.813 A 21.925 21.925 0 0 0 92.7 65.95 A 19.398 19.398 0 0 0 102.962 71.938 Z M 474.362 71.938 A 29.726 29.726 0 0 0 481.3 72.7 Q 492.5 72.7 498.5 65.95 A 20.51 20.51 0 0 0 501.538 61.418 Q 504.5 55.453 504.5 46.6 A 49.146 49.146 0 0 0 504.452 44.415 Q 504.309 41.205 503.738 38.409 A 27.005 27.005 0 0 0 501.8 32.4 A 23.417 23.417 0 0 0 501.363 31.511 A 19.067 19.067 0 0 0 493.95 23.6 Q 490.892 21.819 487.006 21.095 A 31.172 31.172 0 0 0 481.3 20.6 A 29.938 29.938 0 0 0 474.362 21.356 A 19.429 19.429 0 0 0 464.1 27.3 Q 459.975 31.906 458.686 39.301 A 42.565 42.565 0 0 0 458.1 46.6 Q 458.1 52.949 459.624 57.813 A 21.925 21.925 0 0 0 464.1 65.95 A 19.398 19.398 0 0 0 474.362 71.938 Z M 63.5 41.9 L 63.5 71.7 L 57.8 71.7 L 57.8 21.6 L 63.5 21.6 L 63.5 30.8 Q 65 26.7 68.35 24.15 Q 71.7 21.6 76.6 21.6 L 81.4 21.6 L 81.4 26.6 L 76.5 26.6 A 15.571 15.571 0 0 0 72.487 27.088 A 10.882 10.882 0 0 0 66.9 30.55 Q 64.114 33.787 63.611 39.342 A 28.397 28.397 0 0 0 63.5 41.9 Z M 109.9 67.6 A 20.934 20.934 0 0 0 115.22 66.962 A 14.543 14.543 0 0 0 122.85 62.2 A 17.531 17.531 0 0 0 126.078 56.202 Q 127.4 52.098 127.4 46.6 A 36.596 36.596 0 0 0 126.956 40.699 Q 125.978 34.728 122.85 31.05 A 14.789 14.789 0 0 0 114.091 26.077 A 22.147 22.147 0 0 0 109.9 25.7 A 21.12 21.12 0 0 0 104.58 26.332 A 14.562 14.562 0 0 0 96.95 31.05 Q 93.353 35.28 92.599 42.542 A 39.382 39.382 0 0 0 92.4 46.6 A 36.687 36.687 0 0 0 92.844 52.506 Q 93.36 55.66 94.473 58.184 A 16.571 16.571 0 0 0 96.95 62.2 A 14.796 14.796 0 0 0 105.883 67.252 A 22.108 22.108 0 0 0 109.9 67.6 Z M 481.3 67.6 A 20.934 20.934 0 0 0 486.62 66.962 A 14.543 14.543 0 0 0 494.25 62.2 A 17.531 17.531 0 0 0 497.478 56.202 Q 498.8 52.098 498.8 46.6 A 36.596 36.596 0 0 0 498.356 40.699 Q 497.378 34.728 494.25 31.05 A 14.789 14.789 0 0 0 485.491 26.077 A 22.147 22.147 0 0 0 481.3 25.7 A 21.12 21.12 0 0 0 475.98 26.332 A 14.562 14.562 0 0 0 468.35 31.05 Q 464.753 35.28 463.999 42.542 A 39.382 39.382 0 0 0 463.8 46.6 A 36.687 36.687 0 0 0 464.244 52.506 Q 464.76 55.66 465.873 58.184 A 16.571 16.571 0 0 0 468.35 62.2 A 14.796 14.796 0 0 0 477.283 67.252 A 22.108 22.108 0 0 0 481.3 67.6 Z M 6 39.1 L 23.4 39.1 A 38.669 38.669 0 0 0 27.472 38.9 Q 31.619 38.459 34.3 37.05 Q 38.2 35 39.75 31.25 A 19.781 19.781 0 0 0 40.982 26.775 A 27.329 27.329 0 0 0 41.3 22.5 A 28.268 28.268 0 0 0 41.044 18.596 Q 40.67 15.917 39.75 13.75 A 10.719 10.719 0 0 0 35.294 8.698 A 13.937 13.937 0 0 0 34.3 8.15 A 15.282 15.282 0 0 0 31.229 7.04 Q 28.138 6.254 23.803 6.203 A 51.638 51.638 0 0 0 23.2 6.2 L 6 6.2 L 6 39.1 Z M 352.1 21.6 L 357.8 21.6 L 357.8 71.7 L 352.1 71.7 L 352.1 21.6 Z M 351.5 8.1 L 351.5 0 L 358.4 0 L 358.4 8.1 L 351.5 8.1 Z" vector-effect="non-scaling-stroke"/></g></svg>